<?xml version="1.0" encoding="UTF-8"?>
<svg width="65px" height="64px" viewBox="0 0 65 64" version="1.1" xmlns="http://www.w3.org/2000/svg" xmlns:xlink="http://www.w3.org/1999/xlink">
    <title>esphome_boolean</title>
    <g id="esphome_boolean" stroke="none" fill="none" transform="translate(0.2, 0)" fill-rule="evenodd">
        <path d="M32,8 C45.254834,8 56,18.745166 56,32 C56,45.254834 45.254834,56 32,56 C18.745166,56 8,45.254834 8,32 C8,18.745166 18.745166,8 32,8 Z M32,12.8 C21.3961328,12.8 12.8,21.3961328 12.8,32 C12.8,42.6038672 21.3961328,51.2 32,51.2 C42.6038672,51.2 51.2,42.6038672 51.2,32 C51.2,21.3961328 42.6038672,12.8 32,12.8 Z M42.8719975,20.3648041 C43.9157189,21.01713 44.2848957,22.3404342 43.7698455,23.426093 L43.6351959,23.6719975 L31.6351959,42.8719975 C30.8717269,44.0935479 29.2328821,44.3558327 28.1304535,43.4980657 L27.9029437,43.2970563 L20.7029437,36.0970563 C19.7656854,35.159798 19.7656854,33.640202 20.7029437,32.7029437 C21.5681052,31.8377822 22.9294598,31.7712313 23.8709587,32.5032911 L24.0970563,32.7029437 L29.1656,37.7696 L39.5648041,21.1280025 C40.2673089,20.0039949 41.7479898,19.6622993 42.8719975,20.3648041 Z" id="Shape" fill="#000000"></path>
    </g>
</svg>