<?xml version="1.0" encoding="UTF-8"?>
<svg width="64px" height="64px" viewBox="0 0 64 64" version="1.1" xmlns="http://www.w3.org/2000/svg" xmlns:xlink="http://www.w3.org/1999/xlink">
    <title>measure_date</title>
    <g id="measure_date" stroke="none" fill="none" fill-rule="evenodd">
        <path d="M17,10 C17.5522847,10 18,10.4477153 18,11 L18,14 C18,16.209139 19.790861,18 22,18 C24.209139,18 26,16.209139 26,14 C26,11.790861 27.790861,10 30,10 L34,10 C36.209139,10 38,11.790861 38,14 C38,16.209139 39.790861,18 42,18 C44.209139,18 46,16.209139 46,14 L46,11 C46,10.4477153 46.4477153,10 47,10 L48,10 C51.3137085,10 54,12.6862915 54,16 L54,48 C54,51.3137085 51.3137085,54 48,54 L16,54 C12.6862915,54 10,51.3137085 10,48 L10,16 C10,12.6862915 12.6862915,10 16,10 L17,10 Z M16,22 C14.8954305,22 14,22.8954305 14,24 L14,48 C14,49.1045695 14.8954305,50 16,50 L48,50 C49.1045695,50 50,49.1045695 50,48 L50,24 C50,22.8954305 49.1045695,22 48,22 L16,22 Z M22,6 C23.1045695,6 24,6.8954305 24,8 L24,14 C24,15.1045695 23.1045695,16 22,16 C20.8954305,16 20,15.1045695 20,14 L20,8 C20,6.8954305 20.8954305,6 22,6 Z M42,6 C43.1045695,6 44,6.8954305 44,8 L44,14 C44,15.1045695 43.1045695,16 42,16 C40.8954305,16 40,15.1045695 40,14 L40,8 C40,6.8954305 40.8954305,6 42,6 Z" id="Combined-Shape" fill="#000000"></path>
    </g>
</svg>